HIERARCHY
ROOT pelvis
{
  OFFSET 0 100 0
  CHANNELS 6 Xposition Yposition Zposition Zrotation Xrotation Yrotation
  JOINT pelvis_right_femur
  {
    OFFSET -10.78128 -3.44521 -0.5502486
    CHANNELS 3 Zrotation Xrotation Yrotation
    JOINT right_femur_tibia
    {
      OFFSET -0.8047443 -44.0398 -0.1307829
      CHANNELS 3 Zrotation Xrotation Yrotation
      JOINT right_tibia_foot
      {
        OFFSET 3.006224 -47.83518 -5
        CHANNELS 3 Zrotation Xrotation Yrotation
        End Site
        {
          OFFSET 0 -5 15
        }
      }
    }
  }
  JOINT pelvis_left_femur
  {
    OFFSET 10.78128 -3.44521 -0.5502486
    CHANNELS 3 Zrotation Xrotation Yrotation
    JOINT left_femur_tibia
    {
      OFFSET 0.8047443 -44.0398 -0.1307829
      CHANNELS 3 Zrotation Xrotation Yrotation
      JOINT left_tibia_foot
      {
        OFFSET -4.370144 -48.10324 -4.275266
        CHANNELS 3 Zrotation Xrotation Yrotation
        End Site
        {
          OFFSET 0 -5 15
        }
      }
    }
  }
  JOINT pelvis_spine1
  {
    OFFSET 0 6.468898 -3.129235
    CHANNELS 3 Zrotation Xrotation Yrotation
    JOINT spine1
    {
      OFFSET 0 23.15396 4.99043
      CHANNELS 3 Zrotation Xrotation Yrotation
      JOINT spine2
      {
        OFFSET 0 20.79997 -5.064912
        CHANNELS 3 Zrotation Xrotation Yrotation
        JOINT neck
        {
          OFFSET 0 14.38658 9.616178
          CHANNELS 3 Zrotation Xrotation Yrotation
          End Site
          {
            OFFSET 0 20 0
          }
        }
      }
      JOINT right_manubrium
      {
        OFFSET -5.722621 16.35077 3.967754
        CHANNELS 3 Zrotation Xrotation Yrotation
        JOINT right_clavicle
        {
          OFFSET -13.16364 1.694482 -4.693211
          CHANNELS 3 Zrotation Xrotation Yrotation
          JOINT right_humerus
          {
            OFFSET -28.5034 -0.3100689 -2.792744
            CHANNELS 3 Zrotation Xrotation Yrotation
            JOINT right_radius
            {
              OFFSET -25.15693 0.02248979 -1.271978
              CHANNELS 3 Zrotation Xrotation Yrotation
              End Site
              {
                OFFSET -15 0 0
              }
            }
          }
        }
      }
      JOINT left_manubrium
      {
        OFFSET 5.722621 16.35077 3.967754
        CHANNELS 3 Zrotation Xrotation Yrotation
        JOINT left_clavicle
        {
          OFFSET 13.16364 1.694482 -4.693211
          CHANNELS 3 Zrotation Xrotation Yrotation
          JOINT left_humerus
          {
            OFFSET 29.39168 -1.063119 -2.237045
            CHANNELS 3 Zrotation Xrotation Yrotation
            JOINT left_radius
            {
              OFFSET 24.59957 -0.9528479 0.9047498
              CHANNELS 3 Zrotation Xrotation Yrotation
              End Site
              {
                OFFSET 15 -0 -0
              }
            }
          }
        }
      }
    }
  }
}
MOTION
Frames: 11
Frame Time: 0.0416666666667
0 103.5113 0 0.4967302 -1.839131 -0.06493835 2.119201 -14.47172 8.245769 -0 41.80282 -0 -8.034712 -14.48383 -3.474169 -6.34878 11.00828 -25.06014 -0 5.96079 -0 1.318486 -18.92105 24.8967 -2.325057 -1.834671 3.131442 1.882933 5.669881 -7.66589 1.526928 23.41184 6.7627 3.779373 -22.27346 8.188024 5.656994 -17.51573 10.07927 86.38367 35.21267 -22.20396 -0 0 15.53446 -7.154224 8.495014 3.203151 5.09265 -19.35086 -2.700893 -98.29907 42.42559 25.54515 0 0 -23.31549 -10.69925 17.88717 27.94202
0.2005835 103.7625 1.22573 0.272514 -1.08781 -0.09161712 2.126575 -15.5545 8.693757 -0 42.97739 -0 -8.061678 -14.59963 -3.398819 -6.352645 10.70782 -25.86582 -0 5.993666 -0 -0.6568111 -20.07634 24.3417 -2.305497 -1.840978 3.095473 1.91403 5.660643 -7.733255 1.52255 23.40841 6.773469 3.762719 -22.35799 8.211878 5.630518 -17.48739 10.07497 86.60203 35.19347 -22.51342 -0 0 15.3863 -7.051208 8.461827 3.123229 5.074038 -19.42197 -2.718535 -98.28726 42.65477 25.49386 0 0 -23.65519 -10.89034 17.82021 28.22789
0.3785615 103.6734 2.69333 0.3447877 -0.4946023 -0.0354548 2.737226 -19.53258 8.015343 -0 38.11156 -0 -6.806959 -13.64879 -3.306097 -6.39479 11.69854 -24.5691 -0 5.261729 -0 0.4222496 -21.4659 23.79218 -2.256461 -1.641699 3.39437 1.940577 6.157875 -7.542932 1.361456 23.15816 6.955473 3.807246 -22.72462 8.201721 5.660474 -17.71827 10.38969 86.10045 35.57022 -21.27187 -0 0 15.28176 -8.220223 8.928495 4.190505 4.931298 -19.28775 -2.606089 -97.49134 40.30906 25.24939 0 0 -22.35863 -8.905001 17.30002 25.84932
0.5412688 103.3593 4.351226 0.3164115 0.1608624 0.08885934 3.226266 -22.65509 7.571549 -0 34.55451 -0 -5.948781 -12.85672 -3.192969 -6.405981 12.32677 -23.66874 -0 4.791705 -0 0.8283762 -22.58964 23.17484 -2.174507 -1.537955 3.462019 2.065206 6.458056 -7.616662 1.251786 22.97862 7.083655 3.79291 -23.20043 8.264042 5.63319 -17.78402 10.5721 86.37505 35.72358 -21.32779 -0 0 14.83152 -8.491911 9.009334 4.57498 4.826956 -19.39314 -2.559255 -96.97418 39.29745 24.93084 0 0 -22.25433 -7.921061 16.83122 24.79774
0.6946434 102.7942 6.330087 0.2496836 0.9374298 0.2919592 3.850349 -26.18322 6.906152 -0 30.01375 -0 -5.101554 -11.60209 -2.986597 -6.401661 13.04713 -22.37275 -0 4.505582 -0 1.536254 -23.593 22.35806 -2.080965 -1.432122 3.50962 2.219796 6.776144 -7.730031 1.13564 22.77627 7.220855 3.768455 -23.74548 8.346029 5.597077 -17.83457 10.76229 86.76458 35.87408 -21.52245 -0 0 14.28399 -8.695272 9.067682 4.936966 4.7231 -19.53902 -2.508109 -96.39512 38.25187 24.53149 0 0 -22.26503 -6.868659 16.30155 23.68648
0.8450934 102.0176 8.710688 0.08431071 1.824116 0.5827232 4.506891 -29.57875 6.152181 -0 25.42969 -0 -4.538599 -9.988162 -2.690507 -6.349856 13.6561 -20.96443 -0 4.629997 -0 2.018404 -24.35891 21.27152 -1.980332 -1.344404 3.518599 2.395329 7.058509 -7.897027 1.028041 22.57478 7.352993 3.727704 -24.32071 8.448333 5.543691 -17.85515 10.93097 87.30704 35.99914 -21.96493 -0 0 13.66267 -8.767332 9.103003 5.196168 4.622982 -19.73376 -2.466662 -95.82985 37.4427 24.09569 0 0 -22.57272 -6.015127 15.76034 22.84548
0.9983192 101.0857 11.60684 -0.2191177 2.841681 0.9727974 5.225045 -32.79718 5.291794 -0 20.79826 -0 -4.34644 -7.939083 -2.28994 -6.217962 14.15173 -19.40292 -0 5.421907 -0 2.174027 -24.76685 19.79398 -1.879454 -1.263333 3.516968 2.575565 7.326886 -8.080091 0.9250563 22.36897 7.483155 3.678735 -24.89591 8.558718 5.481444 -17.86364 11.09168 87.89138 36.1202 -22.47524 -0 0 13.02049 -8.826758 9.163873 5.438508 4.525196 -19.94358 -2.428032 -95.24857 36.69808 23.63298 0 0 -23.00931 -5.234526 15.207 22.10086
1.158087 100.0887 15.12698 -0.6919167 3.9206 1.467157 5.982506 -35.46663 4.415107 -0 16.59329 -0 -4.635747 -5.608384 -1.823039 -5.960163 14.4945 -17.79871 -0 7.19948 -0 1.751045 -24.61715 17.87621 -1.782113 -1.186678 3.514443 2.749484 7.58173 -8.264417 0.8273774 22.16342 7.610289 3.624305 -25.44574 8.669506 5.411971 -17.86427 11.24536 88.47608 36.24297 -22.99474 -0 0 12.38268 -8.928472 9.276889 5.691524 4.426637 -20.15607 -2.395464 -94.65418 36.00147 23.15889 0 0 -23.53795 -4.538137 14.64875 21.45831
1.325483 99.15454 19.36989 -1.333921 4.904078 2.049772 6.766152 -37.10634 3.649956 -0 13.35612 -0 -5.448966 -3.272799 -1.375498 -5.534625 14.68463 -16.26397 -0 10.39434 -0 0.5927548 -23.63147 15.56956 -1.693806 -1.110203 3.522883 2.9036 7.827656 -8.429205 0.7353875 21.9637 7.732789 3.569575 -25.93673 8.769894 5.340222 -17.86147 11.39425 89.00133 36.3745 -23.43686 -0 0 11.78145 -9.13772 9.46616 5.990625 4.326713 -20.35421 -2.37161 -94.04759 35.30249 22.68671 0 0 -24.07919 -3.904495 14.0954 20.87674
1.497199 98.44625 24.38945 -2.068797 5.494604 2.657208 7.526356 -37.1053 3.166497 -0 11.74262 -0 -6.694355 -1.383534 -1.121993 -4.933567 14.74572 -14.93882 -0 15.46412 -0 -1.295472 -21.53909 13.14605 -1.620618 -1.030454 3.553171 3.022074 8.066371 -8.553361 0.6504161 21.77932 7.847842 3.520222 -26.32794 8.84706 5.27129 -17.85765 11.53857 89.4074 36.51947 -23.72048 -0 0 11.25091 -9.521322 9.753698 6.366681 4.224546 -20.52167 -2.36235 -93.43818 34.57195 22.23444 0 0 -24.55911 -3.335223 13.56085 20.34157
1.66263 98.14707 30.15175 -2.712712 5.284251 3.157169 8.148202 -34.92326 3.079241 -0 12.20929 -0 -8.110176 -0.3994619 -1.29398 -4.222239 14.67348 -13.90322 -0 22.76457 -0 -3.618996 -18.24898 11.11539 -1.570222 -0.9446254 3.616924 3.085138 8.296679 -8.611553 0.5752852 21.6243 7.950395 3.483655 -26.56696 8.885207 5.211978 -17.85513 11.67615 89.62211 36.67795 -23.7529 -0 0 10.8371 -10.14664 10.15417 6.847188 4.121229 -20.63824 -2.375015 -92.84748 33.78965 21.82877 0 0 -24.88545 -2.840334 13.06756 19.84341
